
<svg width="252.9125px" height="173.6px" xmlns="http://www.w3.org/2000/svg" viewBox="123.54375 -11.799999999999997 252.9125 173.6" style="background: rgba(0, 0, 0, 0);" preserveAspectRatio="xMidYMid"><defs><filter id="editing-extrusion" x="-100%" y="-100%" width="300%" height="300%"><feFlood result="color1" flood-color="#444"></feFlood><feConvolveMatrix order="2,2" divisor="1" kernelMatrix="1 0 0 1" in="SourceAlpha" result="extrude"></feConvolveMatrix><feComposite in="color1" in2="extrude" result="comp-extrude" operator="in"></feComposite><feOffset dx="1" dy="1" in="comp-extrude" result="offset-extrude"></feOffset><feMerge><feMergeNode in="offset-extrude"></feMergeNode><feMergeNode in="SourceGraphic"></feMergeNode></feMerge></filter></defs><g filter="url(#editing-extrusion)"><g transform="translate(164.0150032043457, 98.26000022888184)"><path d="M39.30-34.24L39.30-1.34L39.30-1.34Q38.40-0.45 36.70 0.03L36.70 0.03L36.70 0.03Q35.01 0.51 32.64 0.51L32.64 0.51L32.64 0.51Q30.27 0.51 28.16-0.19L28.16-0.19L28.16-0.19Q26.05-0.90 24.70-3.58L24.70-3.58L18.37-16.51L18.37-16.51Q17.41-18.50 16.64-20.26L16.64-20.26L16.64-20.26Q15.87-22.02 14.98-24.32L14.98-24.32L14.59-24.26L14.59-24.26Q14.85-20.80 14.88-17.22L14.88-17.22L14.88-17.22Q14.91-13.63 14.91-10.18L14.91-10.18L14.91-0.26L14.91-0.26Q14.21-0.06 12.77 0.13L12.77 0.13L12.77 0.13Q11.33 0.32 9.92 0.32L9.92 0.32L9.92 0.32Q8.51 0.32 7.42 0.13L7.42 0.13L7.42 0.13Q6.34-0.06 5.63-0.64L5.63-0.64L5.63-0.64Q4.93-1.22 4.54-2.21L4.54-2.21L4.54-2.21Q4.16-3.20 4.16-4.80L4.16-4.80L4.16-36.80L4.16-36.80Q5.06-38.08 6.91-38.72L6.91-38.72L6.91-38.72Q8.77-39.36 10.88-39.36L10.88-39.36L10.88-39.36Q13.25-39.36 15.39-38.62L15.39-38.62L15.39-38.62Q17.54-37.89 18.82-35.26L18.82-35.26L25.22-22.34L25.22-22.34Q26.18-20.35 26.94-18.59L26.94-18.59L26.94-18.59Q27.71-16.83 28.61-14.53L28.61-14.53L28.93-14.59L28.93-14.59Q28.67-18.05 28.61-21.50L28.61-21.50L28.61-21.50Q28.54-24.96 28.54-28.42L28.54-28.42L28.54-38.78L28.54-38.78Q29.25-38.98 30.69-39.17L30.69-39.17L30.69-39.17Q32.13-39.36 33.54-39.36L33.54-39.36L33.54-39.36Q36.35-39.36 37.82-38.37L37.82-38.37L37.82-38.37Q39.30-37.38 39.30-34.24L39.30-34.24ZM46.53-39.74L46.53-39.74L46.53-39.74Q46.53-42.18 48.16-43.84L48.16-43.84L48.16-43.84Q49.79-45.50 52.48-45.50L52.48-45.50L52.48-45.50Q55.17-45.50 56.80-43.84L56.80-43.84L56.80-43.84Q58.43-42.18 58.43-39.74L58.43-39.74L58.43-39.74Q58.43-37.31 56.80-35.65L56.80-35.65L56.80-35.65Q55.17-33.98 52.48-33.98L52.48-33.98L52.48-33.98Q49.79-33.98 48.16-35.65L48.16-35.65L48.16-35.65Q46.53-37.31 46.53-39.74ZM57.92-26.11L57.92-0.06L57.92-0.06Q57.22 0.06 55.84 0.29L55.84 0.29L55.84 0.29Q54.46 0.51 53.06 0.51L53.06 0.51L53.06 0.51Q51.65 0.51 50.53 0.32L50.53 0.32L50.53 0.32Q49.41 0.13 48.64-0.45L48.64-0.45L48.64-0.45Q47.87-1.02 47.46-2.02L47.46-2.02L47.46-2.02Q47.04-3.01 47.04-4.61L47.04-4.61L47.04-30.66L47.04-30.66Q47.74-30.78 49.12-31.01L49.12-31.01L49.12-31.01Q50.50-31.23 51.90-31.23L51.90-31.23L51.90-31.23Q53.31-31.23 54.43-31.04L54.43-31.04L54.43-31.04Q55.55-30.85 56.32-30.27L56.32-30.27L56.32-30.27Q57.09-29.70 57.50-28.70L57.50-28.70L57.50-28.70Q57.92-27.71 57.92-26.11L57.92-26.11ZM95.55-19.46L95.55-0.06L95.55-0.06Q94.91 0.13 93.54 0.32L93.54 0.32L93.54 0.32Q92.16 0.51 90.69 0.51L90.69 0.51L90.69 0.51Q89.28 0.51 88.16 0.32L88.16 0.32L88.16 0.32Q87.04 0.13 86.27-0.45L86.27-0.45L86.27-0.45Q85.50-1.02 85.09-2.02L85.09-2.02L85.09-2.02Q84.67-3.01 84.67-4.61L84.67-4.61L84.67-18.82L84.67-18.82Q84.67-21.44 83.36-22.50L83.36-22.50L83.36-22.50Q82.05-23.55 80.13-23.55L80.13-23.55L80.13-23.55Q78.85-23.55 77.70-23.23L77.70-23.23L77.70-23.23Q76.54-22.91 75.84-22.46L75.84-22.46L75.84-0.06L75.84-0.06Q75.20 0.13 73.82 0.32L73.82 0.32L73.82 0.32Q72.45 0.51 70.98 0.51L70.98 0.51L70.98 0.51Q69.57 0.51 68.45 0.32L68.45 0.32L68.45 0.32Q67.33 0.13 66.56-0.45L66.56-0.45L66.56-0.45Q65.79-1.02 65.38-2.02L65.38-2.02L65.38-2.02Q64.96-3.01 64.96-4.61L64.96-4.61L64.96-41.73L64.96-41.73Q65.66-41.86 67.04-42.08L67.04-42.08L67.04-42.08Q68.42-42.30 69.82-42.30L69.82-42.30L69.82-42.30Q71.23-42.30 72.35-42.11L72.35-42.11L72.35-42.11Q73.47-41.92 74.24-41.34L74.24-41.34L74.24-41.34Q75.01-40.77 75.42-39.78L75.42-39.78L75.42-39.78Q75.84-38.78 75.84-37.18L75.84-37.18L75.84-30.91L75.84-30.91Q76.67-31.23 78.37-31.65L78.37-31.65L78.37-31.65Q80.06-32.06 82.11-32.06L82.11-32.06L82.11-32.06Q88.45-32.06 92-28.90L92-28.90L92-28.90Q95.55-25.73 95.55-19.46L95.55-19.46ZM115.58-6.91L115.58-6.91L115.58-6.91Q116.67-6.91 117.98-7.14L117.98-7.14L117.98-7.14Q119.30-7.36 119.94-7.74L119.94-7.74L119.94-12.86L115.33-12.48L115.33-12.48Q113.54-12.35 112.38-11.71L112.38-11.71L112.38-11.71Q111.23-11.07 111.23-9.79L111.23-9.79L111.23-9.79Q111.23-8.51 112.22-7.71L112.22-7.71L112.22-7.71Q113.22-6.91 115.58-6.91ZM115.07-32.06L115.07-32.06L115.07-32.06Q118.53-32.06 121.38-31.36L121.38-31.36L121.38-31.36Q124.22-30.66 126.24-29.22L126.24-29.22L126.24-29.22Q128.26-27.78 129.34-25.57L129.34-25.57L129.34-25.57Q130.43-23.36 130.43-20.35L130.43-20.35L130.43-6.02L130.43-6.02Q130.43-4.35 129.50-3.30L129.50-3.30L129.50-3.30Q128.58-2.24 127.30-1.47L127.30-1.47L127.30-1.47Q123.14 1.02 115.58 1.02L115.58 1.02L115.58 1.02Q112.19 1.02 109.47 0.38L109.47 0.38L109.47 0.38Q106.75-0.26 104.80-1.54L104.80-1.54L104.80-1.54Q102.85-2.82 101.79-4.80L101.79-4.80L101.79-4.80Q100.74-6.78 100.74-9.41L100.74-9.41L100.74-9.41Q100.74-13.82 103.36-16.19L103.36-16.19L103.36-16.19Q105.98-18.56 111.49-19.14L111.49-19.14L119.87-20.03L119.87-20.48L119.87-20.48Q119.87-22.34 118.24-23.14L118.24-23.14L118.24-23.14Q116.61-23.94 113.54-23.94L113.54-23.94L113.54-23.94Q111.10-23.94 108.80-23.42L108.80-23.42L108.80-23.42Q106.50-22.91 104.64-22.14L104.64-22.14L104.64-22.14Q103.81-22.72 103.23-23.90L103.23-23.90L103.23-23.90Q102.66-25.09 102.66-26.37L102.66-26.37L102.66-26.37Q102.66-28.03 103.46-29.02L103.46-29.02L103.46-29.02Q104.26-30.02 105.92-30.72L105.92-30.72L105.92-30.72Q107.78-31.42 110.30-31.74L110.30-31.74L110.30-31.74Q112.83-32.06 115.07-32.06ZM135.74-15.55L135.74-15.55L135.74-15.55Q135.74-19.78 137.02-22.88L137.02-22.88L137.02-22.88Q138.30-25.98 140.58-28.03L140.58-28.03L140.58-28.03Q142.85-30.08 145.89-31.07L145.89-31.07L145.89-31.07Q148.93-32.06 152.45-32.06L152.45-32.06L152.45-32.06Q153.73-32.06 154.94-31.84L154.94-31.84L154.94-31.84Q156.16-31.62 156.93-31.30L156.93-31.30L156.93-41.66L156.93-41.66Q157.57-41.86 158.98-42.08L158.98-42.08L158.98-42.08Q160.38-42.30 161.86-42.30L161.86-42.30L161.86-42.30Q163.26-42.30 164.38-42.11L164.38-42.11L164.38-42.11Q165.50-41.92 166.27-41.34L166.27-41.34L166.27-41.34Q167.04-40.77 167.42-39.78L167.42-39.78L167.42-39.78Q167.81-38.78 167.81-37.18L167.81-37.18L167.81-6.85L167.81-6.85Q167.81-3.84 164.99-2.05L164.99-2.05L164.99-2.05Q163.14-0.83 160.19 0.10L160.19 0.10L160.19 0.10Q157.25 1.02 153.41 1.02L153.41 1.02L153.41 1.02Q149.25 1.02 145.95-0.13L145.95-0.13L145.95-0.13Q142.66-1.28 140.38-3.46L140.38-3.46L140.38-3.46Q138.11-5.63 136.93-8.67L136.93-8.67L136.93-8.67Q135.74-11.71 135.74-15.55ZM153.92-23.55L153.92-23.55L153.92-23.55Q150.46-23.55 148.61-21.57L148.61-21.57L148.61-21.57Q146.75-19.58 146.75-15.55L146.75-15.55L146.75-15.55Q146.75-11.58 148.48-9.57L148.48-9.57L148.48-9.57Q150.21-7.55 153.47-7.55L153.47-7.55L153.47-7.55Q154.62-7.55 155.55-7.90L155.55-7.90L155.55-7.90Q156.48-8.26 156.99-8.70L156.99-8.70L156.99-22.78L156.99-22.78Q155.71-23.55 153.92-23.55Z" fill="#ccc"></path></g></g><style>text {
  font-size: 64px;
  font-family: Arial Black;
  dominant-baseline: central;
  text-anchor: middle;
}</style></svg>
